<svg xmlns="http://www.w3.org/2000/svg" viewBox="0 0 6400 2250" width="6400" height="2250">
<path d="M 3122.608 25.250 C 3120.819 96.684, 3121.324 93.631, 3109.208 106.285 C 3104.882 110.803, 3099.426 117.536, 3097.084 121.247 C 3091.597 129.938, 3086.545 134.185, 3077.112 138.036 C 3029.902 157.309, 2997.979 191.522, 2989.673 231.746 C 2985.054 254.115, 2983.362 255.881, 2965.362 257.116 C 2946.072 258.439, 2944.013 260.421, 2943.978 277.700 C 2943.946 293.672, 2940.212 299.983, 2930.782 300.006 C 2915.005 300.044, 2913.859 307.195, 2925.655 332 C 2934.957 351.562, 2934.195 333.296, 2934.098 534.410 C 2934.017 701.972, 2933.910 712.525, 2932.256 715.845 C 2929.181 722.019, 2926.063 723.511, 2916.688 723.294 C 2901.654 722.946, 2894.836 725.669, 2892.391 733 C 2891.932 734.375, 2891.544 823.025, 2891.528 930 C 2891.500 1124.500, 2891.500 1124.500, 2889.237 1128.737 C 2886.266 1134.296, 2881.578 1136.613, 2868.156 1139.155 C 2856.565 1141.350, 2836.212 1148.731, 2824.200 1155.095 C 2812.366 1161.365, 2809.632 1160.782, 2798 1149.509 C 2750.263 1103.242, 2686.327 1098.341, 2634.500 1136.975 C 2606.302 1157.994, 2590.697 1185.608, 2587.976 1219.299 C 2586.369 1239.188, 2585.428 1240.383, 2568.472 1244.057 C 2528.687 1252.676, 2490.665 1275.721, 2464.407 1307.129 C 2454.752 1318.678, 2449.313 1320.350, 2438.485 1315.096 C 2415.724 1304.053, 2414.019 1303.501, 2387 1298.431 C 2362.996 1293.927, 2350.372 1293.542, 2333 1296.784 C 2326.675 1297.964, 2316.729 1299.820, 2310.897 1300.908 C 2254.606 1311.409, 2190.076 1374.192, 2179.005 1429.228 C 2174.660 1450.827, 2170.998 1453.165, 2151.111 1447.039 C 2122.310 1438.168, 2103.886 1437.539, 2081.221 1444.654 C 2064.313 1449.963, 2059.818 1447.051, 2053.600 1426.762 C 2048.413 1409.838, 2029.762 1372.590, 2020.922 1361.500 C 1978.807 1308.671, 1913.023 1278.707, 1845 1281.369 C 1820.546 1282.326, 1815.907 1283.196, 1786 1292.445 C 1775.566 1295.672, 1757.838 1303.254, 1752.066 1306.958 C 1742.653 1312.998, 1738.272 1313.099, 1722.029 1307.650 C 1705.313 1302.043, 1698.535 1301.193, 1687.376 1303.305 C 1654.557 1309.516, 1631.349 1330.376, 1622.631 1361.500 C 1619.548 1372.509, 1616.629 1375.654, 1606.445 1378.944 C 1602.654 1380.169, 1595.352 1383.805, 1590.217 1387.025 C 1577.524 1394.984, 1572.870 1396.427, 1562.580 1395.592 C 1530.954 1393.026, 1499.756 1403.769, 1469.500 1427.645 C 1458.599 1436.248, 1440.204 1459.030, 1434.899 1470.500 C 1421.229 1500.053, 1417.813 1534.106, 1428 1539.276 C 1433.193 1541.912, 2653.217 1541.316, 2667 1538.671 C 2671.675 1537.774, 2679.325 1537.028, 2684 1537.012 C 2688.675 1536.997, 2695.352 1536.522, 2698.839 1535.956 C 2705.487 1534.878, 2715.139 1534.021, 2748.984 1531.509 C 2760.250 1530.673, 2779.150 1528.437, 2790.984 1526.540 C 2802.818 1524.643, 2818.800 1522.411, 2826.500 1521.578 C 2834.200 1520.746, 2845.900 1518.962, 2852.500 1517.613 C 2859.100 1516.265, 2871.475 1513.957, 2880 1512.486 C 2888.525 1511.014, 2901.085 1508.492, 2907.912 1506.882 C 2914.738 1505.271, 2924.863 1503.282, 2930.412 1502.462 C 2935.960 1501.642, 2945.900 1499.429, 2952.500 1497.544 C 2959.100 1495.660, 2968.100 1493.596, 2972.500 1492.958 C 2976.900 1492.320, 2984.015 1490.690, 2988.312 1489.336 C 2992.608 1487.982, 3001.833 1485.370, 3008.812 1483.533 C 3028.021 1478.474, 3046.122 1473.315, 3060 1468.944 C 3066.875 1466.778, 3081.749 1462.769, 3093.053 1460.035 C 3104.356 1457.300, 3115.381 1454.311, 3117.553 1453.392 C 3123.474 1450.886, 3143.884 1443.379, 3158 1438.516 C 3170.947 1434.055, 3186.478 1428.004, 3208 1419.036 C 3214.875 1416.171, 3224.775 1412.121, 3230 1410.037 C 3235.225 1407.953, 3242.450 1404.900, 3246.055 1403.253 C 3249.661 1401.606, 3253.711 1399.920, 3255.055 1399.506 C 3256.400 1399.092, 3260.200 1397.411, 3263.500 1395.770 C 3266.800 1394.128, 3272.200 1391.744, 3275.500 1390.472 C 3283.841 1387.257, 3297.177 1380.939, 3327.911 1365.644 C 3358.802 1350.270, 3362.518 1347.527, 3364.003 1339 C 3366.338 1325.591, 3364.714 734.900, 3362.330 730.447 C 3359.320 724.825, 3356.383 723.719, 3343.997 723.550 C 3331.888 723.383, 3328.184 721.899, 3325.266 716.044 C 3322.168 709.828, 3322.583 352.796, 3325.697 345 C 3341.461 305.534, 3341.522 303.082, 3326.822 299.962 C 3315.778 297.619, 3314.597 295.760, 3314 279.787 C 3313.274 260.369, 3310.973 257.587, 3295.461 257.376 C 3279.323 257.156, 3274.955 253.033, 3271.002 234.290 C 3265.428 207.853, 3255.014 189.938, 3232.599 168.224 C 3222.204 158.154, 3198.874 142, 3194.726 142 C 3192.381 142, 3168.233 131.585, 3166.124 129.664 C 3164.818 128.474, 3161.384 123.900, 3158.494 119.500 C 3155.605 115.100, 3150.226 108.575, 3146.543 105 C 3135.845 94.617, 3135.700 94.172, 3134.856 69 C 3134.459 57.175, 3133.674 45.475, 3133.111 43 C 3132.548 40.525, 3132.068 29.838, 3132.044 19.250 C 3132 0, 3132 0, 3127.620 -0 C 3123.240 -0, 3123.240 0, 3122.608 25.250 M 1645 540.006 C 1609.211 541.639, 1581.783 560.775, 1571.629 591.194 C 1568.442 600.742, 1568.015 608.763, 1568.008 659.300 C 1567.999 719.541, 1568.121 719, 1554.475 719 C 1538.304 719, 1537 721.429, 1537 751.556 C 1537 784.223, 1538.051 786.621, 1552.865 787.758 C 1556.514 788.038, 1560.658 788.852, 1562.073 789.567 C 1567.842 792.484, 1567.458 785.111, 1568 903.403 C 1568.555 1024.530, 1568.097 1016.930, 1575.067 1020.535 C 1579.827 1022.996, 1640.377 1022.297, 1644.282 1019.736 C 1650.951 1015.362, 1650.447 1024.090, 1651 903.448 C 1651.424 810.905, 1651.717 794.045, 1652.927 792.587 C 1655.359 789.658, 1659.687 788, 1664.901 788 C 1684.668 788, 1686.939 784.216, 1686.976 751.218 C 1687.009 721.777, 1686.358 720.690, 1667.742 719.119 C 1650.769 717.686, 1650.992 718.198, 1651.026 680.782 C 1651.073 629.206, 1653.067 622.381, 1669.826 616.454 C 1687.225 610.301, 1686.500 611.907, 1686.500 579.500 C 1686.500 539.887, 1684.720 538.194, 1645 540.006 M 1970.942 545.928 C 1966.223 547.397, 1964.271 548.909, 1962.630 552.367 C 1960.021 557.865, 1960.140 1008.807, 1962.752 1013.929 C 1966.665 1021.603, 1966.110 1021.500, 2003.499 1021.500 C 2040.575 1021.500, 2040.323 1021.544, 2044 1014.410 C 2046.502 1009.556, 2046.749 557.958, 2044.252 553.071 C 2040.366 545.466, 2040.648 545.522, 2005.178 545.316 C 1987.755 545.215, 1972.349 545.490, 1970.942 545.928 M 2432.352 546.072 C 2428.244 547.289, 2423.006 553.277, 2422.980 556.785 C 2422.012 689.349, 2423.254 1011.750, 2424.744 1014.292 C 2428.953 1021.479, 2428.882 1021.465, 2461.821 1021.820 C 2499.807 1022.229, 2500.844 1021.929, 2504.460 1009.490 C 2507.598 998.694, 2509.444 998.739, 2525.384 1010.003 C 2557.411 1032.635, 2590.836 1031.740, 2620.605 1007.452 C 2634.391 996.205, 2647.589 967.123, 2655.526 930.500 C 2658.019 918.997, 2660.319 873.198, 2659.136 858.620 C 2658.550 851.404, 2657.807 840.851, 2657.484 835.169 C 2653.920 772.431, 2623.392 723.700, 2584.050 717.947 C 2557.632 714.084, 2541.398 718.664, 2521.454 735.608 C 2512.912 742.865, 2508.087 743.556, 2506.084 737.810 C 2505.337 735.668, 2505 707, 2504.998 645.601 C 2504.997 547.046, 2505.346 552.465, 2498.679 547.571 C 2495.553 545.276, 2439.325 544.005, 2432.352 546.072 M 1405.132 548.190 C 1399.632 549.130, 1397.292 550.536, 1395.517 553.967 C 1393.195 558.458, 1393.067 1008.830, 1395.386 1014.382 C 1398.456 1021.730, 1401.254 1022.221, 1437.834 1021.828 C 1473.137 1021.449, 1474.229 1021.251, 1477.357 1014.660 C 1480.058 1008.967, 1479.882 556.669, 1477.177 553.011 C 1473.526 548.074, 1472.041 547.863, 1439.543 547.675 C 1422.838 547.579, 1407.353 547.810, 1405.132 548.190 M 4578 548 C 4544.764 548.545, 4544.359 548.616, 4541.622 554.385 C 4538.719 560.502, 4539.666 1011.727, 4542.590 1015.677 C 4546.766 1021.318, 4547.761 1021.473, 4581.737 1021.803 C 4617.419 1022.148, 4620.012 1021.709, 4623.310 1014.760 C 4625.876 1009.352, 4625.954 558.424, 4623.390 554.083 C 4619.519 547.530, 4618.119 547.342, 4578 548 M 4718.867 548.065 C 4714.030 548.876, 4711.236 550.643, 4709.510 553.980 C 4707.008 558.819, 4707.244 1009.980, 4709.752 1015 C 4713.200 1021.904, 4714.396 1022.098, 4751.500 1021.782 C 4788.527 1021.466, 4789.563 1021.272, 4793.248 1013.966 C 4796.630 1007.262, 4795.827 557.137, 4792.426 553.095 C 4791.011 551.413, 4788.198 549.576, 4786.176 549.014 C 4782.262 547.926, 4724.547 547.112, 4718.867 548.065 M 1186.679 714.026 C 1145.265 720.568, 1117.985 740.699, 1097.277 780 C 1091.054 791.810, 1088.325 799.356, 1083.356 818.500 C 1079.795 832.214, 1078.885 902.489, 1082.112 914.500 C 1095.009 962.503, 1110.374 989.401, 1134.305 1005.866 C 1149.541 1016.348, 1191.217 1027.464, 1208 1025.522 C 1237.921 1022.060, 1236.096 1022.470, 1255.063 1014.948 C 1277.873 1005.901, 1288.891 997.162, 1301.645 978 C 1325.656 941.929, 1334.538 899.637, 1330.113 842.454 C 1323.620 758.540, 1260.824 702.314, 1186.679 714.026 M 1814.401 717.427 C 1800.078 721.080, 1800.272 721, 1788 728.338 C 1757.412 746.627, 1734.612 786.205, 1729.515 829.864 C 1726.129 858.861, 1727.673 910.471, 1732.476 928.863 C 1747.839 987.690, 1777.132 1017.505, 1826.548 1024.613 C 1847.647 1027.648, 1863.674 1025.233, 1885.886 1015.673 C 1901.475 1008.963, 1901 1010.384, 1901 970.482 C 1901 932.839, 1900.732 931.721, 1892 932.979 C 1891.175 933.098, 1888.025 934.701, 1885 936.540 C 1866.962 947.511, 1843.961 944.128, 1828.850 928.283 C 1810.323 908.856, 1807.471 844.853, 1823.787 814.681 C 1834.890 794.149, 1865.309 785.931, 1884.696 798.227 C 1891.412 802.486, 1894.894 802.821, 1898 799.506 C 1901.770 795.482, 1901.953 733.836, 1898.212 727.821 C 1890.762 715.839, 1843.572 709.987, 1814.401 717.427 M 4331.500 716.107 C 4299.506 721.636, 4280.247 732.318, 4262.225 754.533 C 4246.740 773.621, 4233.281 800.549, 4231.504 816 C 4231.156 819.025, 4229.960 826.800, 4228.846 833.277 C 4224.318 859.607, 4227.907 920.970, 4234.932 937.346 C 4236.076 940.012, 4238.384 946.087, 4240.062 950.846 C 4245.591 966.532, 4255.855 981.676, 4271.600 997.379 C 4309.186 1034.863, 4391.699 1035.116, 4432.450 997.872 C 4460.136 972.569, 4478.265 921.596, 4478.286 869 C 4478.302 829.324, 4468.585 794.421, 4449.444 765.397 C 4423.779 726.481, 4379.222 707.860, 4331.500 716.107 M 4960.500 715.560 C 4901.227 726.586, 4865.818 768.177, 4857.960 836 C 4857.354 841.225, 4856.218 849.550, 4855.434 854.500 C 4852.043 875.904, 4858.192 922.912, 4867.440 946.295 C 4869.948 952.636, 4872 958.224, 4872 958.713 C 4872 966.977, 4902.869 1003.861, 4914.833 1009.893 C 4957.173 1031.239, 4996.836 1031.245, 5042.910 1009.912 C 5068.056 998.270, 5100.235 945.691, 5089.709 933.447 C 5087.176 930.500, 5087.176 930.500, 5059.110 930.206 C 5022.374 929.820, 5021.305 930.138, 5013.158 943.851 C 5001.020 964.283, 4971.995 968.462, 4956.594 951.997 C 4941.655 936.026, 4934.773 902.830, 4944.770 894.966 C 4947.201 893.054, 4949.188 893, 5016.885 892.994 C 5089.983 892.989, 5091.889 892.878, 5096.074 888.418 C 5103.620 880.376, 5096.545 814.088, 5085.395 788.359 C 5082.978 782.782, 5081 777.808, 5081 777.306 C 5081 770.728, 5058.069 742.428, 5045.500 733.493 C 5023.792 718.062, 4987.832 710.475, 4960.500 715.560 M 855.481 718.470 C 832.406 723.494, 810.823 745.551, 799.920 775.250 C 798.254 779.787, 796.055 785.750, 795.033 788.500 C 787.833 807.874, 782.052 878.180, 785.962 898.800 C 786.491 901.591, 787.623 909.640, 788.476 916.687 C 791.448 941.217, 796.606 959.971, 805.614 978.990 C 827.145 1024.453, 878.718 1035.999, 922.903 1005.250 C 938.145 994.643, 940.003 997.205, 939.992 1028.815 C 939.980 1064.448, 938.504 1071.456, 929.054 1080.758 C 920.524 1089.154, 916.778 1090.502, 902 1090.490 C 881.632 1090.473, 872.474 1083.360, 865.529 1062.159 C 861.177 1048.877, 857.979 1047.771, 825.113 1048.187 C 792.670 1048.598, 791.367 1049.329, 791.656 1066.964 C 792.690 1130.051, 850.035 1168.204, 930 1159.006 C 973.673 1153.983, 1005.597 1127.021, 1012.536 1089.299 C 1013.426 1084.460, 1015.286 1076, 1016.670 1070.500 C 1020.937 1053.543, 1021.258 1041.276, 1021.645 880.500 C 1022.040 716.481, 1022.331 725.794, 1016.676 721.596 C 1012.339 718.377, 950.488 718.336, 945 721.549 C 941.082 723.844, 939.145 728.108, 939.056 734.639 C 938.925 744.253, 933.580 745.217, 924.736 737.221 C 910.418 724.277, 902.803 719.822, 891.994 718.069 C 883.189 716.640, 862.858 716.863, 855.481 718.470 M 2133.121 719.965 C 2122.174 722.670, 2122.895 715.742, 2123.288 814.522 C 2123.656 906.650, 2123.631 906.118, 2129.350 945.561 C 2133.560 974.600, 2144.218 997.862, 2157.501 1007 C 2199.258 1035.731, 2293.591 1030.693, 2321.246 998.257 C 2331.590 986.125, 2338.107 967.917, 2341.511 941.639 C 2342.875 931.112, 2344.440 919.800, 2344.989 916.500 C 2345.603 912.814, 2345.991 875.475, 2345.994 819.700 C 2346.001 719.540, 2346.340 724.878, 2339.733 721.267 C 2334.940 718.648, 2272.187 718.576, 2267.427 721.184 C 2261.075 724.665, 2261.546 716.770, 2261 828.903 C 2260.506 930.304, 2260.476 931.553, 2258.412 936.011 C 2249.641 954.960, 2221.699 956.154, 2212.487 937.974 C 2208.276 929.664, 2208.089 924.825, 2208.083 823.756 C 2208.077 720.137, 2208.295 724.308, 2202.720 721.260 C 2199.155 719.312, 2140.207 718.215, 2133.121 719.965 M 3616.500 719.929 C 3606.501 722.342, 3606 723.875, 3606 752.084 C 3606 790.048, 3604.888 789, 3645.181 789 C 3681.992 789, 3683.984 790.280, 3677.087 809.500 C 3667.621 835.879, 3664.703 843.910, 3660.012 856.500 C 3657.143 864.200, 3653.086 875.225, 3650.996 881 C 3648.907 886.775, 3646.213 893.750, 3645.009 896.500 C 3642.850 901.433, 3637.473 915.898, 3631.999 931.500 C 3630.455 935.900, 3627.412 944, 3625.237 949.500 C 3623.061 955, 3620.959 960.850, 3620.564 962.500 C 3620.169 964.150, 3618.256 969.100, 3616.313 973.500 C 3614.369 977.900, 3611.760 984.875, 3610.515 989 C 3609.270 993.125, 3607.070 999.100, 3605.626 1002.279 C 3601.218 1011.978, 3602.773 1019.010, 3609.752 1020.948 C 3617.511 1023.103, 3774.791 1022.278, 3779.684 1020.057 C 3787.166 1016.660, 3787.458 1015.379, 3787.793 984.500 C 3788.217 945.354, 3789.746 947.003, 3753.016 946.994 C 3714.831 946.986, 3712.324 944.877, 3721.952 920.879 C 3724.188 915.305, 3728.046 903.572, 3730.525 894.805 C 3733.003 886.038, 3736.210 876.083, 3737.650 872.682 C 3739.091 869.282, 3741.737 862.225, 3743.530 857 C 3745.323 851.775, 3747.927 844.980, 3749.316 841.900 C 3750.706 838.820, 3752.370 834.320, 3753.016 831.900 C 3753.662 829.480, 3755.545 824.350, 3757.201 820.500 C 3758.857 816.650, 3761.477 809.900, 3763.024 805.500 C 3764.570 801.100, 3767.459 793.450, 3769.445 788.500 C 3777.782 767.715, 3780.994 759.174, 3782.556 753.632 C 3783.466 750.405, 3785.840 744.333, 3787.832 740.138 C 3793.478 728.250, 3792.376 722.310, 3784.100 720.011 C 3779.936 718.855, 3621.275 718.776, 3616.500 719.929 M 3838.255 720.080 C 3831.204 722.198, 3830.163 728.742, 3834.847 741.500 C 3836.463 745.900, 3838.778 754.450, 3839.992 760.500 C 3841.207 766.550, 3843.530 775.325, 3845.156 780 C 3846.782 784.675, 3849.026 792.927, 3850.142 798.337 C 3851.258 803.748, 3853.492 811.987, 3855.107 816.647 C 3856.722 821.307, 3858.971 829.930, 3860.105 835.810 C 3861.240 841.689, 3863.459 850.550, 3865.036 855.500 C 3866.613 860.450, 3868.827 868.775, 3869.957 874 C 3871.087 879.225, 3873.339 887.550, 3874.961 892.500 C 3876.583 897.450, 3878.583 905.141, 3879.404 909.592 C 3880.226 914.042, 3882.051 920.747, 3883.461 924.492 C 3884.870 928.236, 3886.934 935.845, 3888.048 941.400 C 3889.162 946.955, 3891.396 955.550, 3893.013 960.500 C 3894.630 965.450, 3897.258 975.809, 3898.852 983.520 C 3903.563 1006.306, 3909.823 1018.681, 3917.843 1021.061 C 3925.083 1023.209, 3973.344 1021.876, 3976.679 1019.435 C 3982.232 1015.371, 3988.700 990.639, 3992.484 959 C 3993.307 952.125, 3995.110 942, 3996.491 936.500 C 3997.872 931, 4000.130 917.950, 4001.507 907.500 C 4005.977 873.589, 4008.593 863, 4012.500 863 C 4015.957 863, 4018.036 870.608, 4021.522 896 C 4022.390 902.325, 4024.439 913.350, 4026.076 920.500 C 4027.713 927.650, 4029.529 938, 4030.110 943.500 C 4030.692 949, 4032.249 958.675, 4033.569 965 C 4036.104 977.138, 4039.115 993.571, 4041.060 1005.889 C 4043.408 1020.750, 4046.695 1022, 4083.425 1022 C 4121.297 1022, 4118.354 1025.800, 4136.086 954 C 4137.783 947.125, 4140.897 935.875, 4143.004 929 C 4145.111 922.125, 4147.559 912.900, 4148.444 908.500 C 4149.328 904.100, 4151.595 895.550, 4153.480 889.500 C 4155.365 883.450, 4157.610 874.450, 4158.469 869.500 C 4162.118 848.466, 4164.265 838.363, 4167.963 824.840 C 4170.119 816.953, 4172.645 807.131, 4173.576 803.013 C 4174.507 798.895, 4176.334 792.694, 4177.637 789.233 C 4178.940 785.772, 4180.932 778.566, 4182.063 773.220 C 4183.195 767.874, 4186.148 756.818, 4188.625 748.651 C 4197.601 719.054, 4196.956 718.562, 4149.967 719.162 C 4111.962 719.647, 4113.421 718.578, 4109.069 749.126 C 4107.453 760.470, 4105 773.970, 4103.619 779.126 C 4102.237 784.281, 4100.422 793.555, 4099.585 799.733 C 4098.748 805.911, 4097.171 814.686, 4096.082 819.233 C 4093.655 829.357, 4090.348 849.054, 4089.490 858.500 C 4085.859 898.456, 4075.924 891.925, 4070.060 845.727 C 4068.978 837.204, 4066.970 825.791, 4065.596 820.365 C 4064.223 814.939, 4062.182 804.504, 4061.060 797.175 C 4059.939 789.846, 4057.674 778.119, 4056.027 771.114 C 4054.379 764.109, 4052.090 751.880, 4050.939 743.939 C 4047.501 720.218, 4046.809 719.702, 4017.652 719.158 C 3978.730 718.432, 3976.611 719.624, 3973.476 744 C 3972.591 750.875, 3970.769 761.450, 3969.425 767.500 C 3965.917 783.302, 3963.161 797.956, 3961.448 809.917 C 3960.628 815.646, 3958.865 825.096, 3957.532 830.917 C 3956.198 836.738, 3954.402 846.900, 3953.541 853.500 C 3948.960 888.613, 3940.593 889.119, 3937.014 854.500 C 3936.389 848.450, 3934.976 839.450, 3933.875 834.500 C 3932.773 829.550, 3930.546 817.018, 3928.926 806.652 C 3927.305 796.285, 3924.615 782.110, 3922.948 775.152 C 3921.281 768.193, 3919.466 757.778, 3918.915 752.007 C 3916.993 731.865, 3914.465 724.953, 3907.662 721.230 C 3903.981 719.216, 3844.418 718.229, 3838.255 720.080 M 4968 786.882 C 4954.479 791.246, 4946.884 800.183, 4941.612 817.933 C 4935.079 839.934, 4938.459 842, 4981 842 C 5015.422 842, 5016.924 841.801, 5020.439 836.783 C 5026.233 828.511, 5013.969 795.114, 5003.102 789.571 C 4994.600 785.234, 4977.230 783.904, 4968 786.882 M 896.718 788.033 C 885.357 790.884, 881.036 796.471, 875.556 815.397 C 872.762 825.045, 869.352 862.990, 870.470 872 C 870.776 874.475, 871.475 882.658, 872.021 890.184 C 875.566 939.010, 900.546 964.469, 922.650 941.785 C 935.058 929.053, 938.874 914.245, 939.606 876 C 940.945 806.028, 928.307 780.104, 896.718 788.033 M 2533.920 788.001 C 2527.709 789.065, 2521.945 792.159, 2518.174 796.455 C 2502.602 814.190, 2497.688 876.563, 2508.582 918.213 C 2520.436 963.532, 2560.518 960.116, 2569.750 913 C 2571.900 902.026, 2572.271 832.099, 2570.243 820 C 2566.522 797.799, 2551.903 784.921, 2533.920 788.001 M 1191.882 789.326 C 1171.788 796.811, 1162.650 821.966, 1162.575 870 C 1162.489 925.604, 1179.845 954.779, 1210.111 949.905 C 1256.727 942.397, 1265.297 815.853, 1220.839 791.489 C 1214.496 788.013, 1198.596 786.825, 1191.882 789.326 M 4340.324 790.383 C 4315.979 798.324, 4304.982 835.719, 4309.817 894.118 C 4312.088 921.546, 4323.717 942.931, 4339.672 949.023 C 4376.949 963.256, 4401.975 914.474, 4393.468 844.163 C 4388.482 802.961, 4367.345 781.570, 4340.324 790.383 M 4074 1213.551 C 4068.775 1214.287, 4060.208 1214.914, 4054.962 1214.945 C 4049.716 1214.975, 4040.041 1215.671, 4033.462 1216.492 C 4026.883 1217.313, 4018.125 1217.993, 4014 1218.004 C 4003.505 1218.031, 3979.234 1220.452, 3954.500 1223.937 C 3942.950 1225.565, 3927.425 1227.631, 3920 1228.530 C 3912.575 1229.428, 3900.650 1231.223, 3893.500 1232.519 C 3886.350 1233.815, 3873.750 1235.792, 3865.500 1236.913 C 3817.310 1243.456, 3805.423 1245.334, 3795.500 1247.968 C 3789.450 1249.575, 3779.100 1251.837, 3772.500 1252.995 C 3765.900 1254.154, 3756 1256.388, 3750.500 1257.960 C 3745 1259.532, 3737.350 1261.518, 3733.500 1262.374 C 3729.650 1263.229, 3723.125 1265.091, 3719 1266.511 C 3714.875 1267.931, 3705.200 1270.621, 3697.500 1272.488 C 3689.800 1274.355, 3680.843 1276.809, 3677.596 1277.940 C 3674.349 1279.072, 3667.997 1280.876, 3663.480 1281.948 C 3658.963 1283.021, 3651.495 1285.456, 3646.884 1287.359 C 3642.273 1289.262, 3635.575 1291.373, 3632 1292.051 C 3628.425 1292.728, 3620.976 1294.983, 3615.446 1297.063 C 3609.917 1299.142, 3602.519 1301.588, 3599.006 1302.498 C 3595.494 1303.409, 3590.921 1305.020, 3588.845 1306.079 C 3586.768 1307.139, 3580.441 1309.554, 3574.785 1311.447 C 3545.331 1321.305, 3516.357 1332.302, 3511.372 1335.515 C 3510.202 1336.269, 3504.726 1338.459, 3499.205 1340.381 C 3493.683 1342.303, 3487.259 1344.848, 3484.930 1346.036 C 3482.600 1347.224, 3479.037 1348.781, 3477.010 1349.496 C 3469.974 1351.979, 3448.985 1361.242, 3419.377 1374.932 C 3412.160 1378.270, 3405.914 1381, 3405.499 1381 C 3405.083 1381, 3388.713 1389.034, 3369.121 1398.852 C 3349.530 1408.671, 3331.191 1417.465, 3328.369 1418.393 C 3325.547 1419.322, 3320.147 1421.949, 3316.369 1424.232 C 3310.303 1427.898, 3298.157 1433.677, 3277 1442.962 C 3256.221 1452.082, 3243.961 1456.737, 3231.500 1460.236 C 3223.800 1462.398, 3213.675 1465.908, 3209 1468.036 C 3200.066 1472.103, 3182.308 1478.974, 3173 1481.964 C 3169.975 1482.936, 3163.675 1485.330, 3159 1487.283 C 3154.325 1489.236, 3146.889 1491.755, 3142.476 1492.881 C 3138.062 1494.007, 3131.312 1496.218, 3127.476 1497.795 C 3123.639 1499.372, 3116.803 1501.656, 3112.284 1502.871 C 3107.766 1504.086, 3101.599 1506.172, 3098.581 1507.507 C 3095.563 1508.842, 3089.584 1510.836, 3085.296 1511.940 C 3081.008 1513.043, 3073 1515.475, 3067.500 1517.343 C 3062 1519.212, 3054.416 1521.271, 3050.648 1521.918 C 3046.879 1522.565, 3040.804 1524.226, 3037.148 1525.609 C 3033.491 1526.993, 3024.875 1529.467, 3018 1531.107 C 3011.125 1532.747, 3001.900 1535.172, 2997.500 1536.496 C 2993.100 1537.820, 2985.450 1539.627, 2980.500 1540.511 C 2975.550 1541.395, 2966.100 1543.659, 2959.500 1545.542 C 2952.900 1547.426, 2941.677 1549.889, 2934.561 1551.016 C 2927.444 1552.144, 2916.260 1554.420, 2909.707 1556.074 C 2903.154 1557.728, 2892.552 1559.756, 2886.146 1560.580 C 2879.741 1561.404, 2871.232 1562.960, 2867.238 1564.039 C 2858.096 1566.508, 2846.362 1568.380, 2823.500 1571.017 C 2813.600 1572.159, 2800.325 1573.953, 2794 1575.004 C 2776.757 1577.870, 2760.518 1579.686, 2740.500 1580.987 C 2730.600 1581.630, 2717.874 1582.797, 2712.220 1583.579 C 2706.566 1584.360, 2699.141 1585.009, 2695.720 1585.020 C 2692.299 1585.031, 2686.575 1585.517, 2683 1586.099 C 2664.512 1589.110, 2612.475 1589.255, 1328 1589.873 C 59.703 1590.484, 25.408 1590.549, 22 1592.364 C 3.565 1602.183, 3.213 1630.574, 21.405 1640.309 C 29.107 1644.430, 6372.467 1643.607, 6380.571 1639.483 C 6387.401 1636.008, 6398.333 1621.698, 6398.333 1616.233 C 6398.333 1610.552, 6387.773 1596.594, 6380.500 1592.662 C 6376.500 1590.500, 6376.500 1590.500, 6172.500 1589.857 C 5978.243 1589.244, 5917.063 1588.379, 5907 1586.104 C 5904.525 1585.545, 5897.775 1585.069, 5892 1585.047 C 5886.225 1585.024, 5875.875 1584.355, 5869 1583.559 C 5862.125 1582.764, 5848.625 1581.611, 5839 1580.999 C 5806.407 1578.926, 5795.550 1577.927, 5773.500 1574.972 C 5761.400 1573.351, 5742.725 1571.110, 5732 1569.992 C 5721.275 1568.874, 5704.625 1566.632, 5695 1565.011 C 5685.375 1563.390, 5671.872 1561.374, 5664.993 1560.531 C 5658.114 1559.689, 5650.914 1558.541, 5648.993 1557.980 C 5643.936 1556.504, 5618.394 1552.146, 5604.978 1550.470 C 5598.641 1549.678, 5588.516 1547.639, 5582.478 1545.939 C 5576.440 1544.238, 5566.325 1542.185, 5560 1541.377 C 5553.675 1540.568, 5541.975 1538.140, 5534 1535.981 C 5526.025 1533.822, 5516.125 1531.568, 5512 1530.971 C 5507.875 1530.375, 5498.875 1528.369, 5492 1526.514 C 5485.125 1524.659, 5475.583 1522.423, 5470.797 1521.547 C 5466.010 1520.670, 5457.685 1518.588, 5452.297 1516.919 C 5446.908 1515.251, 5438.450 1513.034, 5433.500 1511.994 C 5428.550 1510.953, 5421.125 1508.935, 5417 1507.509 C 5412.875 1506.083, 5404.775 1503.801, 5399 1502.438 C 5393.225 1501.075, 5384.450 1498.644, 5379.500 1497.034 C 5374.550 1495.425, 5368.475 1493.613, 5366 1493.007 C 5358.709 1491.223, 5327.085 1481.281, 5305 1473.831 C 5279.812 1465.333, 5271.268 1462.839, 5255.671 1459.430 C 5247.400 1457.622, 5237.732 1454.431, 5225.500 1449.472 C 5215.600 1445.459, 5203 1440.602, 5197.500 1438.678 C 5186.229 1434.735, 5170.857 1428.729, 5157.500 1423.048 C 5152.550 1420.942, 5147.375 1418.900, 5146 1418.509 C 5143.600 1417.826, 5137.884 1415.457, 5115 1405.664 C 5109.225 1403.192, 5101.545 1400.058, 5097.933 1398.699 C 5094.321 1397.340, 5089.371 1395.203, 5086.933 1393.952 C 5082.738 1391.798, 5077.447 1389.645, 5051.500 1379.534 C 5045.450 1377.176, 5038.734 1374.477, 5036.575 1373.537 C 5034.416 1372.596, 5029.691 1370.914, 5026.075 1369.798 C 5022.459 1368.682, 5016.574 1366.297, 5012.998 1364.497 C 5009.422 1362.697, 5004.242 1360.555, 5001.486 1359.737 C 4998.730 1358.919, 4993.106 1356.814, 4988.988 1355.061 C 4984.870 1353.307, 4978.350 1351.003, 4974.500 1349.942 C 4970.650 1348.880, 4964.125 1346.680, 4960 1345.053 C 4955.875 1343.426, 4948.675 1340.996, 4944 1339.653 C 4939.325 1338.309, 4931.900 1335.856, 4927.500 1334.202 C 4908.244 1326.963, 4865.026 1313.103, 4853.786 1310.563 C 4850.094 1309.728, 4844.244 1307.875, 4840.786 1306.445 C 4837.329 1305.014, 4829.533 1302.795, 4823.462 1301.513 C 4817.391 1300.231, 4808.391 1297.609, 4803.462 1295.685 C 4798.533 1293.762, 4792.250 1291.863, 4789.500 1291.466 C 4786.750 1291.069, 4779.775 1289.276, 4774 1287.482 C 4768.225 1285.689, 4759.675 1283.463, 4755 1282.536 C 4750.325 1281.608, 4740.875 1279.317, 4734 1277.443 C 4727.125 1275.570, 4717 1273.171, 4711.500 1272.112 C 4706 1271.053, 4696.980 1268.840, 4691.455 1267.193 C 4685.930 1265.546, 4677.830 1263.677, 4673.455 1263.039 C 4669.080 1262.400, 4658.075 1260.127, 4649 1257.987 C 4639.925 1255.847, 4625.975 1253.137, 4618 1251.966 C 4610.025 1250.795, 4599.225 1248.780, 4594 1247.488 C 4588.775 1246.195, 4580.900 1244.652, 4576.500 1244.059 C 4564.239 1242.405, 4526.820 1238.155, 4514.500 1237.018 C 4508.450 1236.459, 4499.727 1235.337, 4495.115 1234.524 C 4484.985 1232.738, 4451.405 1228.378, 4441 1227.497 C 4436.875 1227.148, 4424.725 1225.777, 4414 1224.451 C 4384.974 1220.863, 4352.864 1218.021, 4341 1217.989 C 4335.225 1217.974, 4324.650 1217.299, 4317.500 1216.490 C 4310.350 1215.682, 4299.775 1215.012, 4294 1215.001 C 4288.225 1214.991, 4277.875 1214.315, 4271 1213.500 C 4253.690 1211.447, 4088.631 1211.489, 4074 1213.551" stroke="none" fill="#363531" fill-rule="evenodd"/>
<path d="M 1286.184 481.714 C 1284.910 481.958, 1277.709 484.323, 1270.181 486.971 C 1262.654 489.619, 1245.596 494.541, 1232.274 497.910 C 1208.986 503.799, 1202.867 505.673, 1182 513.308 C 1176.775 515.220, 1163.725 518.903, 1153 521.492 C 1142.275 524.081, 1130.350 527.336, 1126.500 528.725 C 1091.074 541.506, 1087.734 543.202, 1087.195 548.674 C 1086.626 554.455, 1092.920 557.462, 1120.500 564.585 C 1129.850 566.999, 1143.350 570.784, 1150.500 572.994 C 1157.650 575.205, 1172.700 579.293, 1183.945 582.079 C 1195.189 584.866, 1208.239 588.702, 1212.945 590.604 C 1222.203 594.347, 1245.360 600.859, 1258.986 603.551 C 1263.653 604.473, 1272.878 607.256, 1279.486 609.735 C 1304.847 619.249, 1313.789 617.876, 1318.653 603.719 C 1320.768 597.561, 1321.150 499.986, 1319.089 492.331 C 1316.518 482.782, 1303.165 478.474, 1286.184 481.714 M 4428 482.925 C 4422.756 483.935, 4414.244 486.577, 4409 488.822 C 4403.775 491.058, 4390.500 495.409, 4379.500 498.491 C 4351.481 506.342, 4344.899 508.318, 4333.500 512.303 C 4328 514.225, 4317.425 517.004, 4310 518.477 C 4286.269 523.185, 4280.319 524.997, 4260.208 533.638 C 4224.681 548.902, 4225.611 553.393, 4266.500 564.025 C 4274.750 566.170, 4284.875 569.085, 4289 570.501 C 4293.125 571.918, 4301.531 574.170, 4307.680 575.506 C 4329.443 580.235, 4342.648 583.969, 4355.118 588.922 C 4369.746 594.732, 4376.558 596.689, 4398.500 601.386 C 4407.300 603.270, 4418.325 606.257, 4423 608.024 C 4427.675 609.791, 4434.425 612.348, 4438 613.708 C 4463.087 623.246, 4466.868 609.990, 4464.526 520.728 C 4463.460 480.127, 4460.175 476.726, 4428 482.925 M 44.500 1693.148 C 36.679 1693.782, 25.326 1696.768, 19.667 1699.679 C 13.553 1702.825, -0 1717.706, -0 1721.274 C 0 1726.480, 16.653 1737.304, 30.500 1741.097 C 38.500 1743.289, 38.500 1743.289, 421.500 1743.435 C 697.228 1743.540, 812.762 1743.913, 834 1744.766 C 850.225 1745.418, 880.600 1746.426, 901.500 1747.005 C 972.859 1748.984, 1027.696 1751.317, 1043 1753.025 C 1048.225 1753.609, 1067.125 1754.740, 1085 1755.540 C 1102.875 1756.340, 1119.935 1757.430, 1122.911 1757.962 C 1125.887 1758.495, 1144.097 1759.404, 1163.377 1759.983 C 1182.658 1760.562, 1203.623 1761.455, 1209.966 1761.967 C 1216.310 1762.479, 1231.175 1763.397, 1243 1764.008 C 1254.825 1764.619, 1269.900 1765.971, 1276.500 1767.013 C 1283.100 1768.054, 1294.350 1769.406, 1301.500 1770.017 C 1308.650 1770.628, 1321.475 1772.197, 1330 1773.502 C 1343.976 1775.643, 1367.112 1777.766, 1412 1781.029 C 1420.525 1781.648, 1433.551 1783.027, 1440.946 1784.092 C 1448.342 1785.157, 1461.630 1786.465, 1470.476 1786.999 C 1486.991 1787.994, 1493.739 1788.938, 1502.560 1791.484 C 1510.035 1793.643, 1530.691 1796.773, 1545.500 1797.992 C 1570.047 1800.013, 1590.511 1802.126, 1599 1803.516 C 1603.675 1804.282, 1614.621 1805.840, 1623.325 1806.978 C 1633.231 1808.274, 1642.583 1810.167, 1648.325 1812.039 C 1654.772 1814.140, 1663.447 1815.779, 1677.500 1817.551 C 1688.500 1818.938, 1701.325 1820.714, 1706 1821.498 C 1710.675 1822.282, 1722.883 1823.827, 1733.129 1824.932 C 1751.345 1826.897, 1757.749 1828.329, 1765.164 1832.093 C 1770.395 1834.748, 1775.564 1835.683, 1792 1836.947 C 1805.060 1837.950, 1813.185 1839.225, 1850.426 1846.108 C 1856.435 1847.219, 1865.885 1849.631, 1871.426 1851.468 C 1877.591 1853.512, 1886.350 1855.436, 1894 1856.427 C 1900.875 1857.317, 1911.900 1859.143, 1918.500 1860.484 C 1925.100 1861.826, 1935.856 1863.857, 1942.402 1864.997 C 1948.948 1866.138, 1959.748 1868.839, 1966.402 1871 C 1973.056 1873.161, 1990.650 1877.378, 2005.500 1880.371 C 2035.259 1886.369, 2040.979 1887.736, 2051.928 1891.469 C 2059.518 1894.057, 2090.186 1900.225, 2113.500 1903.853 C 2120.650 1904.965, 2130.325 1907.048, 2135 1908.481 C 2149.637 1912.968, 2156.859 1914.868, 2179 1920.061 C 2204.011 1925.926, 2230.453 1933.131, 2239.597 1936.573 C 2243.120 1937.899, 2251.289 1939.911, 2257.751 1941.044 C 2271.622 1943.476, 2272.681 1943.781, 2289.316 1950.161 C 2296.364 1952.864, 2311.889 1957.514, 2323.816 1960.494 C 2344.531 1965.670, 2350.739 1967.568, 2366.500 1973.540 C 2370.350 1974.999, 2378.675 1977.297, 2385 1978.647 C 2400.335 1981.921, 2422.957 1988.495, 2431.028 1992.023 C 2437.315 1994.772, 2442.298 1996.350, 2472.240 2005.076 C 2479.797 2007.279, 2489.247 2010.474, 2493.240 2012.178 C 2497.233 2013.881, 2505.337 2016.547, 2511.250 2018.102 C 2517.162 2019.657, 2522.787 2021.348, 2523.750 2021.861 C 2524.712 2022.373, 2530 2023.753, 2535.500 2024.928 C 2542.451 2026.413, 2548.549 2028.579, 2555.500 2032.032 C 2561.534 2035.029, 2568.474 2037.607, 2573 2038.532 C 2586.523 2041.297, 2604.027 2046.988, 2612.904 2051.505 C 2617.698 2053.945, 2624.744 2056.657, 2628.560 2057.532 C 2640.001 2060.154, 2662.867 2067.811, 2673 2072.412 C 2683.251 2077.067, 2692.501 2080.081, 2703.878 2082.474 C 2711.947 2084.172, 2715.195 2085.638, 2722.649 2090.952 C 2725.481 2092.971, 2730.656 2095.413, 2734.149 2096.380 C 2750.535 2100.916, 2763.417 2105.526, 2773.500 2110.462 C 2782.306 2114.774, 2788.475 2116.855, 2804.430 2120.899 C 2820.011 2124.849, 2826.885 2127.147, 2835.930 2131.433 C 2842.568 2134.579, 2853.041 2138.452, 2860.500 2140.522 C 2871.041 2143.446, 2875.108 2145.139, 2882 2149.475 C 2890.399 2154.758, 2894.425 2156.317, 2913 2161.477 C 2918.882 2163.111, 2927.070 2166.526, 2934.500 2170.444 C 2942.228 2174.518, 2951.307 2178.271, 2960 2180.985 C 2967.425 2183.302, 2979.350 2188.050, 2986.500 2191.536 C 2993.650 2195.022, 3005.652 2199.893, 3013.171 2202.360 C 3020.690 2204.827, 3031.715 2209.340, 3037.671 2212.389 C 3043.627 2215.438, 3054.392 2219.766, 3061.594 2222.009 C 3070.390 2224.747, 3077.019 2227.535, 3081.787 2230.503 C 3085.691 2232.932, 3092.486 2236.730, 3096.886 2238.943 C 3101.747 2241.387, 3105.989 2244.346, 3107.694 2246.483 C 3112.068 2251.965, 3145.673 2252.006, 3148.283 2246.533 C 3150.890 2241.066, 3161.469 2235.580, 3187.714 2226.085 C 3200.965 2221.291, 3208.958 2218.059, 3220 2213.031 C 3229.762 2208.585, 3249.819 2200.257, 3258.239 2197.152 C 3261.395 2195.989, 3267.195 2193.416, 3271.127 2191.436 C 3275.060 2189.455, 3285.778 2185.218, 3294.946 2182.019 C 3304.113 2178.820, 3316.538 2173.668, 3322.557 2170.570 C 3328.576 2167.472, 3338.225 2163.552, 3344 2161.858 C 3349.775 2160.164, 3359.450 2156.517, 3365.500 2153.754 C 3371.550 2150.990, 3385.050 2145.929, 3395.500 2142.507 C 3405.950 2139.085, 3418.775 2134.461, 3424 2132.232 C 3429.225 2130.003, 3439.750 2126.312, 3447.388 2124.029 C 3465.895 2118.499, 3472.553 2115.917, 3483.393 2110.068 C 3488.402 2107.365, 3496.694 2103.979, 3501.820 2102.542 C 3513.720 2099.207, 3521.635 2096.217, 3530.864 2091.569 C 3534.915 2089.529, 3541.538 2087.013, 3545.582 2085.979 C 3559.327 2082.464, 3580.471 2075.201, 3589.169 2071.008 C 3593.938 2068.709, 3602.038 2065.544, 3607.169 2063.975 C 3612.301 2062.405, 3621.838 2059.499, 3628.362 2057.517 C 3634.886 2055.535, 3643.336 2052.345, 3647.140 2050.429 C 3650.945 2048.514, 3657.982 2045.877, 3662.779 2044.571 C 3682.855 2039.105, 3700.096 2033.885, 3704.643 2031.897 C 3712.752 2028.352, 3731.831 2022.105, 3744 2019.011 C 3750.325 2017.403, 3759.775 2014.304, 3765 2012.124 C 3775.414 2007.779, 3802.912 1999.168, 3816.474 1996.006 C 3821.208 1994.902, 3826.946 1993.048, 3829.224 1991.886 C 3837.058 1987.889, 3845.540 1985.207, 3863.478 1981.056 C 3873.367 1978.767, 3884.167 1975.744, 3887.478 1974.337 C 3899.870 1969.074, 3909.733 1965.838, 3925.386 1961.903 C 3934.244 1959.676, 3948.919 1955.451, 3957.996 1952.515 C 3967.073 1949.579, 3981.250 1945.742, 3989.500 1943.989 C 3997.750 1942.237, 4004.798 1940.620, 4005.161 1940.397 C 4005.525 1940.174, 4011.685 1938.661, 4018.850 1937.034 C 4026.015 1935.407, 4035.975 1932.494, 4040.983 1930.560 C 4050.304 1926.960, 4065.835 1922.908, 4095 1916.465 C 4104.075 1914.461, 4115.550 1911.528, 4120.500 1909.948 C 4125.450 1908.368, 4134 1906.372, 4139.500 1905.512 C 4145 1904.652, 4155.350 1902.613, 4162.500 1900.982 C 4169.650 1899.351, 4179.842 1897.344, 4185.148 1896.523 C 4190.455 1895.701, 4198.330 1893.661, 4202.648 1891.988 C 4211.603 1888.520, 4221.509 1885.881, 4234.500 1883.503 C 4246.611 1881.287, 4284.451 1872.605, 4295 1869.622 C 4299.675 1868.301, 4308.878 1866.010, 4315.451 1864.533 C 4326.505 1862.048, 4333.754 1860.887, 4365.032 1856.597 C 4371.659 1855.687, 4380.913 1853.550, 4386.790 1851.571 C 4393.220 1849.405, 4404.899 1846.795, 4418.258 1844.537 C 4429.941 1842.562, 4440.113 1840.728, 4440.863 1840.461 C 4441.612 1840.195, 4449.692 1839.292, 4458.818 1838.456 C 4473.509 1837.110, 4476.905 1836.434, 4488.455 1832.553 C 4499.386 1828.880, 4505.147 1827.664, 4524 1825.049 C 4536.375 1823.334, 4550.550 1821.288, 4555.500 1820.504 C 4560.450 1819.720, 4571.925 1818.137, 4581 1816.986 C 4590.075 1815.836, 4602.675 1813.610, 4609 1812.041 C 4624.152 1808.281, 4648.908 1804.282, 4662 1803.479 C 4667.775 1803.125, 4676.550 1802.203, 4681.500 1801.431 C 4686.450 1800.660, 4700.850 1799.108, 4713.500 1797.984 C 4738.112 1795.796, 4743.863 1794.976, 4755.539 1791.990 C 4759.639 1790.941, 4768.958 1789.391, 4776.247 1788.544 C 4783.536 1787.698, 4793.100 1786.310, 4797.500 1785.461 C 4801.900 1784.611, 4814.050 1783.275, 4824.500 1782.490 C 4888.657 1777.675, 4930.703 1773.665, 4950 1770.520 C 4958.525 1769.131, 4974.950 1767.320, 4986.500 1766.497 C 4998.050 1765.674, 5017.175 1764.314, 5029 1763.474 C 5060.687 1761.224, 5083.970 1760.051, 5097.460 1760.024 C 5104.037 1760.011, 5115.062 1759.354, 5121.960 1758.565 C 5128.857 1757.776, 5149.575 1756.623, 5168 1756.003 C 5186.425 1755.384, 5206.225 1754.206, 5212 1753.387 C 5217.775 1752.567, 5233.815 1751.492, 5247.645 1750.997 C 5261.474 1750.502, 5274.974 1749.849, 5277.645 1749.546 C 5317.145 1745.065, 5545.567 1743.072, 6006 1743.190 C 6411.383 1743.293, 6370.807 1744.057, 6387 1736.015 C 6391.125 1733.966, 6395.674 1732.007, 6397.109 1731.662 C 6401.544 1730.593, 6402.303 1706, 6397.901 1706 C 6396.908 1706, 6392.589 1704.154, 6388.304 1701.897 C 6379.012 1697.003, 6368.587 1694.161, 6357 1693.363 C 6345.285 1692.555, 54.451 1692.342, 44.500 1693.148" stroke="none" fill="#00A0C4" fill-rule="evenodd"/>
</svg>
